<svg xmlns="http://www.w3.org/2000/svg" xmlns:xlink="http://www.w3.org/1999/xlink" width="40" zoomAndPan="magnify" viewBox="0 0 768 767.999994" height="40" preserveAspectRatio="xMidYMid meet" version="1.0"><defs><g/></defs><g fill="#000000" fill-opacity="1"><g transform="translate(19.17556, 626.131607)"><g><path d="M 313.074219 -488.757812 L 234.242188 -268.777344 L 117.121094 -596.117188 C 116.371094 -599.121094 113.367188 -600.625 109.613281 -600.625 L 7.507812 -600.625 C 1.5 -600.625 -1.5 -596.117188 0.75 -591.613281 L 226.734375 -3.753906 C 229.738281 1.5 238.746094 1.5 241 -3.753906 L 428.695312 -488.757812 Z M 313.074219 -488.757812 "/></g></g></g><g fill="#37594a" fill-opacity="1"><g transform="translate(748.819918, 141.8594)"><g><path d="M -313.074219 488.757812 L -234.242188 268.777344 L -117.121094 596.117188 C -116.371094 599.121094 -113.367188 600.625 -109.613281 600.625 L -7.507812 600.625 C -1.5 600.625 1.5 596.117188 -0.75 591.613281 L -226.734375 3.753906 C -229.738281 -1.5 -238.746094 -1.5 -241 3.753906 L -428.695312 488.757812 Z M -313.074219 488.757812 "/></g></g></g></svg>